<?xml version="1.0" encoding="UTF-8" standalone="no"?>
<svg
   version="1.0"
   width="1000.000000pt"
   height="1000.000000pt"
   viewBox="0 0 1000.000000 1000.000000"
   preserveAspectRatio="xMidYMid meet"
   id="svg8"
   sodipodi:docname="AutoHub.svg"
   inkscape:version="1.3 (0e150ed6c4, 2023-07-21)"
   xmlns:inkscape="http://www.inkscape.org/namespaces/inkscape"
   xmlns:sodipodi="http://sodipodi.sourceforge.net/DTD/sodipodi-0.dtd"
   xmlns="http://www.w3.org/2000/svg"
   xmlns:svg="http://www.w3.org/2000/svg">
  <defs
     id="defs8" />
  <sodipodi:namedview
     id="namedview8"
     pagecolor="#ffffff"
     bordercolor="#000000"
     borderopacity="0.25"
     inkscape:showpageshadow="2"
     inkscape:pageopacity="0.0"
     inkscape:pagecheckerboard="0"
     inkscape:deskcolor="#d1d1d1"
     inkscape:document-units="pt"
     inkscape:zoom="0.59025"
     inkscape:cx="607.36976"
     inkscape:cy="666.66667"
     inkscape:window-width="1920"
     inkscape:window-height="1001"
     inkscape:window-x="1699"
     inkscape:window-y="-9"
     inkscape:window-maximized="1"
     inkscape:current-layer="g8" />
  <g
     transform="translate(0.000000,1000.000000) scale(0.100000,-0.100000)"
     fill="#000000"
     stroke="none"
     id="g8">
    <path
       d="M716 5858 c-36 -93 -134 -343 -241 -618 -46 -118 -114 -291 -150 -385 -147 -376 -169 -433 -196 -499 -16 -37 -29 -70 -29 -72 0 -2 80 -4 178 -4 l177 0 49 133 c27 72 57 156 68 185 l19 52 333 0 333 0 10 -32 c6 -18 25 -69 43 -113 17 -44 43 -113 57 -152 l27 -73 184 0 c143 0 183 3 179 13 -13 31 -254 631 -437 1087 -112 278 -207 515 -213 528 -10 22 -13 22 -187 22 l-176 0 -28 -72z m318 -629 c58 -157 106 -288 106 -292 0 -4 -99 -7 -220 -7 -121 0 -220 3 -220 8 0 4 27 81 61 172 33 91 81 222 107 293 25 70 49 124 53 120 3 -5 54 -137 113 -294z"
       id="path1" />
    <path
       d="M5533 5105 l-1 -825 170 0 171 0 -7 360 -7 359 331 3 330 3 0 -362 0 -363 172 0 171 0 -6 323 c-4 177 -7 548 -7 825 l0 502 -162 -2 -163 -3 -3 -322 -2 -323 -330 0 -330 0 0 325 0 325 -162 0 -163 0 -2 -825z"
       id="path2" />
    <path
       d="M8607 5923 c-4 -3 -7 -375 -7 -825 l0 -818 150 0 150 0 0 55 0 54 33 -19 c137 -80 335 -110 498 -76 196 42 370 201 436 399 23 71 27 98 27 207 0 72 -5 144 -13 170 -26 90 -81 189 -144 257 -76 81 -141 124 -244 160 -70 24 -93 27 -213 28 -148 0 -219 -16 -326 -76 l-52 -28 -6 37 c-3 20 -6 137 -6 260 l0 222 -138 0 c-76 0 -142 -3 -145 -7z m754 -669 c42 -12 66 -28 110 -73 67 -69 89 -122 96 -241 12 -188 -46 -317 -170 -382 -59 -31 -175 -31 -233 0 -68 35 -102 70 -136 140 -32 66 -33 69 -33 202 1 118 4 141 23 184 40 87 95 140 176 168 64 22 98 22 167 2z"
       id="path3" />
    <path
       d="M3595 5838 c-38 -23 -105 -61 -147 -85 l-78 -44 0 -120 0 -119 -75 0 -75 0 0 -125 0 -125 74 0 75 0 4 -382 c2 -278 7 -394 16 -423 32 -99 147 -159 301 -158 81 0 201 23 225 43 8 7 8 37 -1 117 -7 59 -13 112 -14 117 0 4 -12 5 -27 1 -102 -28 -153 -22 -175 19 -8 14 -13 127 -16 344 l-5 322 112 0 111 0 0 125 0 125 -110 0 -110 0 0 205 c0 113 -3 205 -7 204 -5 0 -39 -18 -78 -41z"
       id="path4" />
    <path
       d="M4590 5575 c-237 -40 -444 -228 -520 -471 -74 -238 -1 -509 185 -683 79 -74 163 -121 278 -156 80 -25 97 -27 210 -22 88 3 139 10 182 25 58 21 60 21 75 3 36 -45 319 -411 359 -464 75 -102 140 -122 222 -68 75 50 101 84 106 138 6 53 27 21 -280 421 -56 74 -112 148 -125 166 l-23 33 42 68 c62 102 90 192 96 310 5 87 2 113 -21 200 -54 203 -180 359 -361 445 -137 65 -266 82 -425 55z m255 -180 c244 -64 409 -313 366 -554 -72 -400 -555 -556 -840 -271 -153 153 -186 383 -84 585 32 62 132 162 199 197 105 57 243 73 359 43z"
       id="path5" />
    <path
       d="M4494 5145 c-12 -8 -39 -41 -60 -74 -29 -45 -50 -65 -85 -82 -60 -27 -73 -52 -67 -125 5 -60 23 -84 61 -84 11 0 37 -18 57 -40 31 -33 43 -40 75 -40 31 0 44 7 74 39 l36 39 147 1 c144 2 147 1 159 -21 39 -77 139 -77 178 0 7 14 21 22 36 22 39 0 67 53 60 110 -8 59 -36 83 -123 104 -67 17 -71 20 -113 77 -65 89 -63 89 -251 89 -127 0 -168 -3 -184 -15z"
       id="path6"
       style="fill:#007bd3;fill-opacity:1" />
    <path
       d="M1930 5043 c0 -470 5 -522 58 -617 122 -217 506 -227 695 -17 45 50 51 42 45 -59 l-4 -70 148 0 148 0 0 595 0 595 -159 0 -159 0 -4 -392 c-4 -446 -4 -447 -84 -516 -49 -44 -99 -62 -173 -62 -99 0 -160 48 -180 140 -7 32 -11 197 -11 440 l0 390 -160 0 -160 0 0 -427z"
       id="path7" />
    <path
       d="M7192 5018 c4 -437 5 -455 26 -520 67 -201 308 -296 542 -213 64 23 109 52 173 114 l57 55 0 -87 0 -87 145 0 145 0 0 595 0 595 -154 0 -154 0 -5 -372 c-5 -425 -9 -453 -73 -520 -54 -56 -105 -78 -184 -78 -88 0 -136 27 -170 95 l-25 50 -3 413 -4 412 -159 0 -160 0 3 -452z"
       id="path8" />
  </g>
</svg>
